<svg xmlns="http://www.w3.org/2000/svg" viewBox="0 0 1483.12 463.36">
<g transform="scale(0.46)">
<!-- Demandry Media mark - generated 2026-07-05 - geometric master, do not hand-edit; edit SPEC in generate-masters.mjs -->
<circle cx="500" cy="500" r="488" fill="#0D0F0D"/>
<circle cx="500" cy="500" r="473" fill="none" stroke="#2D4A34" stroke-width="30"/>
<circle cx="500" cy="500" r="433" fill="none" stroke="#1A1D1B" stroke-width="46"/>
<circle cx="500" cy="500" r="456" fill="none" stroke="#2D4A34" stroke-width="5"/>
<circle cx="500" cy="500" r="410" fill="none" stroke="#2D4A34" stroke-width="5"/>
<circle cx="500" cy="500" r="400" fill="#2D4A34"/>
<line x1="402" y1="296" x2="844.07" y2="296" stroke="#0D0F0D" stroke-width="22"/>
<line x1="598" y1="296" x2="890.16" y2="588.16" stroke="#0D0F0D" stroke-width="22"/>
<line x1="668" y1="366" x2="668" y2="863.01" stroke="#0D0F0D" stroke-width="22"/>
<line x1="668" y1="566" x2="564.57" y2="894.75" stroke="#0D0F0D" stroke-width="22"/>
<line x1="424" y1="878" x2="424" y2="107.29" stroke="#0D0F0D" stroke-width="22"/>
<line x1="424" y1="655" x2="123.66" y2="364.46" stroke="#0D0F0D" stroke-width="22"/>
<line x1="332" y1="366" x2="588.16" y2="109.84" stroke="#0D0F0D" stroke-width="22"/>
<line x1="332" y1="566" x2="435.43" y2="894.75" stroke="#0D0F0D" stroke-width="13"/>
<line x1="430" y1="892" x2="272.49" y2="828.99" stroke="#0D0F0D" stroke-width="13"/>
<line x1="570" y1="892" x2="727.51" y2="828.99" stroke="#0D0F0D" stroke-width="13"/>
<line x1="424" y1="878" x2="369.17" y2="878" stroke="#0D0F0D" stroke-width="13"/>
<line x1="640" y1="878" x2="630.83" y2="878" stroke="#0D0F0D" stroke-width="13"/>
<path d="M 402 296 L 598 296 L 668 366 L 668 566 L 640 655 L 640 878 L 424 878 L 424 655 L 332 566 L 332 366 Z" fill="#0D0F0D"/>
<g fill="#C9C5BA"><path transform="translate(76.82 390.99) rotate(-75.55)" d="M0.24 0L-2.41 0L-2.41-14.42L-7.62-14.42L-7.62-16.86L-2.41-16.86L-2.41-21.15Q-2.41-22.30-1.68-23.05Q-0.95-23.80 0.20-23.80L6.87-23.80L6.87-21.35L1.16-21.35Q0.24-21.35 0.24-20.33L0.24-16.86L7.28-16.86L7.28-14.42L0.24-14.42"/><path transform="translate(82.63 370.49) rotate(-72.76)" d="M6.15-26.66L-3.74 3.60L-6.15 2.86L3.77-27.40"/><path transform="translate(89.44 350.3) rotate(-69.97)" d="M8.09 0L-8.02 0L-8.02-4.08Q-8.02-6.26-7.07-7.68Q-6.12-9.11-4.39-10.01Q-2.65-10.91-0.27-11.42Q2.75-12.10 4.10-13.38Q5.44-14.65 5.44-16.46L5.44-16.66Q5.44-17.88 4.90-19.02Q4.35-20.16 3.18-20.89Q2.01-21.62 0.14-21.62Q-2.45-21.62-3.91-20.03Q-5.37-18.43-5.37-15.78L-5.37-14.28L-8.23-14.28L-8.23-15.98Q-8.23-18.16-7.28-20.04Q-6.32-21.93-4.45-23.10Q-2.58-24.28 0.14-24.28Q2.89-24.28 4.69-23.21Q6.49-22.13 7.40-20.47Q8.30-18.80 8.30-16.97L8.30-16.35Q8.30-13.67 6.60-11.73Q4.90-9.79 1.16-8.98Q-2.07-8.26-3.62-7.09Q-5.17-5.92-5.17-3.67L-5.17-2.65L8.09-2.65"/><path transform="translate(97.22 330.47) rotate(-67.17)" d="M0 0.48Q-0.95 0.48-1.67-0.24Q-2.38-0.95-2.38-1.90Q-2.38-2.89-1.67-3.59Q-0.95-4.28 0-4.28Q0.99-4.28 1.68-3.59Q2.38-2.89 2.38-1.90Q2.38-0.95 1.68-0.24Q0.99 0.48 0 0.48"/><path transform="translate(105.97 311.04) rotate(-64.38)" d="M0.31 0.48L-0.31 0.48Q-2.69 0.48-4.49-0.37Q-6.29-1.22-7.28-2.69Q-8.26-4.15-8.26-5.98L-8.26-6.39Q-8.26-8.02-7.62-9.20Q-6.97-10.37-5.97-11.10Q-4.96-11.83-3.84-12.14L-3.84-12.55Q-5.37-13.06-6.51-14.38Q-7.65-15.71-7.65-17.68L-7.65-18.09Q-7.65-19.89-6.70-21.28Q-5.75-22.68-4.05-23.48Q-2.35-24.28-0.10-24.28L0.10-24.28Q2.35-24.28 4.05-23.48Q5.75-22.68 6.70-21.28Q7.65-19.89 7.65-18.09L7.65-17.68Q7.65-15.71 6.51-14.38Q5.37-13.06 3.84-12.55L3.84-12.14Q4.96-11.83 5.97-11.10Q6.97-10.37 7.62-9.20Q8.26-8.02 8.26-6.39L8.26-5.98Q8.26-4.15 7.28-2.69Q6.29-1.22 4.51-0.37Q2.72 0.48 0.31 0.48M0-13.67Q2.11-13.67 3.45-14.81Q4.79-15.95 4.79-17.61L4.79-17.82Q4.79-19.55 3.49-20.62Q2.18-21.69 0-21.69Q-2.18-21.69-3.48-20.62Q-4.79-19.55-4.79-17.82L-4.79-17.61Q-4.79-15.95-3.45-14.81Q-2.11-13.67 0-13.67M-0.20-2.11L0.20-2.11Q2.52-2.11 3.96-3.32Q5.41-4.52 5.41-6.39L5.41-6.60Q5.41-8.70 3.93-9.86Q2.45-11.02 0.10-11.02L-0.10-11.02Q-2.45-11.02-3.93-9.86Q-5.41-8.70-5.41-6.60L-5.41-6.39Q-5.41-4.52-3.94-3.32Q-2.48-2.11-0.20-2.11"/><path transform="translate(250.84 140.99) rotate(-34.76)" d="M0.24 0L-2.41 0L-2.41-14.42L-7.62-14.42L-7.62-16.86L-2.41-16.86L-2.41-21.15Q-2.41-22.30-1.68-23.05Q-0.95-23.80 0.20-23.80L6.87-23.80L6.87-21.35L1.16-21.35Q0.24-21.35 0.24-20.33L0.24-16.86L7.28-16.86L7.28-14.42L0.24-14.42"/><path transform="translate(268.64 129.27) rotate(-31.97)" d="M6.15-26.66L-3.74 3.60L-6.15 2.86L3.77-27.40"/><path transform="translate(286.98 118.43) rotate(-29.17)" d="M5.13 0L2.28 0L2.28-4.49L-8.74-4.49L-8.74-8.43L-0.41-23.80L5.13-23.80L5.13-7.14L8.81-7.14L8.81-4.49L5.13-4.49L5.13 0M-6.29-7.55L-6.29-7.14L2.28-7.14L2.28-22.58L1.87-22.58"/><path transform="translate(694.62 108.73) rotate(26.45)" d="M0.24 0L-2.41 0L-2.41-14.42L-7.62-14.42L-7.62-16.86L-2.41-16.86L-2.41-21.15Q-2.41-22.30-1.68-23.05Q-0.95-23.80 0.20-23.80L6.87-23.80L6.87-21.35L1.16-21.35Q0.24-21.35 0.24-20.33L0.24-16.86L7.28-16.86L7.28-14.42L0.24-14.42"/><path transform="translate(713.45 118.68) rotate(29.24)" d="M6.15-26.66L-3.74 3.60L-6.15 2.86L3.77-27.40"/><path transform="translate(731.79 129.54) rotate(32.03)" d="M0.41 0.48Q-2.35 0.48-4.27-0.58Q-6.19-1.63-7.17-3.47Q-8.16-5.30-8.16-7.62L-8.16-8.57L-5.30-8.57L-5.30-7.82Q-5.30-5.03-3.72-3.60Q-2.14-2.18 0.41-2.18Q2.24-2.18 3.47-3.03Q4.69-3.88 5.30-5.25Q5.92-6.63 5.92-8.23L5.92-8.43Q5.92-9.83 5.30-10.97Q4.69-12.10 3.60-12.78Q2.52-13.46 1.09-13.46Q-0.34-13.46-1.26-12.73Q-2.18-12-2.38-11.22L-7.75-11.22L-7.75-23.80L7.14-23.80L7.14-21.15L-4.96-21.15L-4.96-12.65L-4.56-12.65Q-3.84-14.04-2.40-15.08Q-0.95-16.12 1.29-16.12Q3.47-16.12 5.15-15.18Q6.83-14.25 7.80-12.55Q8.77-10.85 8.77-8.57L8.77-7.96Q8.77-5.71 7.82-3.79Q6.87-1.87 5-0.70Q3.13 0.48 0.41 0.48"/><path transform="translate(749.57 141.27) rotate(34.83)" d="M0 0.48Q-0.95 0.48-1.67-0.24Q-2.38-0.95-2.38-1.90Q-2.38-2.89-1.67-3.59Q-0.95-4.28 0-4.28Q0.99-4.28 1.68-3.59Q2.38-2.89 2.38-1.90Q2.38-0.95 1.68-0.24Q0.99 0.48 0 0.48"/><path transform="translate(766.76 153.86) rotate(37.62)" d="M0 0.48Q-2.35 0.48-4.22-0.53Q-6.09-1.53-7.17-3.30Q-8.26-5.07-8.26-7.38L-8.26-16.05Q-8.26-18.56-7.14-20.42Q-6.02-22.27-4.16-23.27Q-2.31-24.28-0.07-24.28Q2.21-24.28 4-23.37Q5.78-22.47 6.82-20.81Q7.85-19.14 7.85-16.86L5-16.86Q5-19.07 3.64-20.42Q2.28-21.76-0.14-21.76Q-2.41-21.76-3.91-20.18Q-5.41-18.60-5.41-16.05L-5.41-12.51L-5-12.51Q-4.18-14.01-2.67-14.86Q-1.16-15.71 0.71-15.71Q2.92-15.71 4.62-14.77Q6.32-13.84 7.29-12.09Q8.26-10.34 8.26-7.89L8.26-7.48Q8.26-5.13 7.17-3.35Q6.09-1.56 4.22-0.54Q2.35 0.48 0 0.48M0-2.04Q2.48-2.04 3.94-3.55Q5.41-5.07 5.41-7.41L5.41-7.82Q5.41-9.42 4.71-10.62Q4.01-11.83 2.79-12.51Q1.56-13.19 0-13.19Q-1.53-13.19-2.75-12.50Q-3.98-11.80-4.69-10.61Q-5.41-9.42-5.41-7.96L-5.41-7.31Q-5.41-5.03-3.94-3.54Q-2.48-2.04 0-2.04"/><path transform="translate(894.25 311.49) rotate(64.45)" d="M0.24 0L-2.41 0L-2.41-14.42L-7.62-14.42L-7.62-16.86L-2.41-16.86L-2.41-21.15Q-2.41-22.30-1.68-23.05Q-0.95-23.80 0.20-23.80L6.87-23.80L6.87-21.35L1.16-21.35Q0.24-21.35 0.24-20.33L0.24-16.86L7.28-16.86L7.28-14.42L0.24-14.42"/><path transform="translate(902.97 330.93) rotate(67.24)" d="M6.15-26.66L-3.74 3.60L-6.15 2.86L3.77-27.40"/><path transform="translate(910.73 350.77) rotate(70.03)" d="M0.31 0.48L-0.31 0.48Q-2.69 0.48-4.49-0.37Q-6.29-1.22-7.28-2.69Q-8.26-4.15-8.26-5.98L-8.26-6.39Q-8.26-8.02-7.62-9.20Q-6.97-10.37-5.97-11.10Q-4.96-11.83-3.84-12.14L-3.84-12.55Q-5.37-13.06-6.51-14.38Q-7.65-15.71-7.65-17.68L-7.65-18.09Q-7.65-19.89-6.70-21.28Q-5.75-22.68-4.05-23.48Q-2.35-24.28-0.10-24.28L0.10-24.28Q2.35-24.28 4.05-23.48Q5.75-22.68 6.70-21.28Q7.65-19.89 7.65-18.09L7.65-17.68Q7.65-15.71 6.51-14.38Q5.37-13.06 3.84-12.55L3.84-12.14Q4.96-11.83 5.97-11.10Q6.97-10.37 7.62-9.20Q8.26-8.02 8.26-6.39L8.26-5.98Q8.26-4.15 7.28-2.69Q6.29-1.22 4.51-0.37Q2.72 0.48 0.31 0.48M0-13.67Q2.11-13.67 3.45-14.81Q4.79-15.95 4.79-17.61L4.79-17.82Q4.79-19.55 3.49-20.62Q2.18-21.69 0-21.69Q-2.18-21.69-3.48-20.62Q-4.79-19.55-4.79-17.82L-4.79-17.61Q-4.79-15.95-3.45-14.81Q-2.11-13.67 0-13.67M-0.20-2.11L0.20-2.11Q2.52-2.11 3.96-3.32Q5.41-4.52 5.41-6.39L5.41-6.60Q5.41-8.70 3.93-9.86Q2.45-11.02 0.10-11.02L-0.10-11.02Q-2.45-11.02-3.93-9.86Q-5.41-8.70-5.41-6.60L-5.41-6.39Q-5.41-4.52-3.94-3.32Q-2.48-2.11-0.20-2.11"/><path transform="translate(917.52 370.97) rotate(72.83)" d="M0 0.48Q-0.95 0.48-1.67-0.24Q-2.38-0.95-2.38-1.90Q-2.38-2.89-1.67-3.59Q-0.95-4.28 0-4.28Q0.99-4.28 1.68-3.59Q2.38-2.89 2.38-1.90Q2.38-0.95 1.68-0.24Q0.99 0.48 0 0.48"/><path transform="translate(923.31 391.47) rotate(75.62)" d="M0 0.48Q-3.91 0.48-6.14-2.02Q-8.36-4.52-8.36-9.25L-8.36-14.55Q-8.36-19.14-6.14-21.71Q-3.91-24.28 0-24.28Q3.94-24.28 6.15-21.71Q8.36-19.14 8.36-14.55L8.36-9.25Q8.36-4.52 6.15-2.02Q3.94 0.48 0 0.48M0-2.11Q2.75-2.11 4.13-4.05Q5.51-5.98 5.51-9.45L5.51-14.35Q5.51-17.61 4.13-19.65Q2.75-21.69 0-21.69Q-2.75-21.69-4.13-19.65Q-5.51-17.61-5.51-14.35L-5.51-9.45Q-5.51-5.98-4.13-4.05Q-2.75-2.11 0-2.11M0-9.72Q-0.85-9.72-1.51-10.39Q-2.18-11.05-2.18-11.90Q-2.18-12.78-1.51-13.43Q-0.85-14.08 0-14.08Q0.88-14.08 1.53-13.43Q2.18-12.78 2.18-11.90Q2.18-11.05 1.53-10.39Q0.88-9.72 0-9.72"/></g>
<path fill-rule="nonzero" d="M 382 460 A 118 118 0 1 1 618 460 A 118 118 0 1 1 382 460 Z M 458 430 A 42 42 0 1 0 542 430 A 42 42 0 1 0 458 430 Z M 464 540 h 72 v 50 h -72 Z M 464 585 h 16.5 v 117 h -16.5 Z M 491.75 585 h 16.5 v 117 h -16.5 Z M 519.5 585 h 16.5 v 117 h -16.5 Z M 464 696 h 72 v 244 h -72 Z M 536 702 h 64 v 64 h -64 Z M 548 714 v 40 h 40 v -40 Z M 569 766 L 620 856 L 518 856 Z M 569 798 L 552 836 L 586 836 Z" fill="#E8342E"/>
<g fill="#0D0F0D">
<path transform="translate(437.39 407.05) rotate(-49.78)" d="M-0.51 0L-9.45 0L-9.45-20.64L-0.51-20.64Q3.03-20.64 5.43-19.53Q7.83-18.42 9.08-16.14Q10.32-13.86 10.32-10.32Q10.32-6.81 9.08-4.51Q7.83-2.22 5.43-1.11Q3.03 0-0.51 0M-2.82-15.69L-2.82-4.95L-0.63-4.95Q0.45-4.95 1.24-5.25Q2.04-5.55 2.55-6.12Q3.06-6.69 3.30-7.53Q3.54-8.37 3.54-9.42L3.54-11.22Q3.54-12.27 3.30-13.11Q3.06-13.95 2.55-14.52Q2.04-15.09 1.24-15.39Q0.45-15.69-0.63-15.69"/><path transform="translate(458.3 389.39) rotate(-30.57)" d="M9.54 0L-8.52 0L-8.52-20.64L9.33-20.64L9.33-15.69L-1.89-15.69L-1.89-12.84L7.71-12.84L7.71-8.10L-1.89-8.10L-1.89-4.95L9.54-4.95"/><path transform="translate(486.72 379.08) rotate(-9.32)" d="M-6.51 0L-12.36 0L-12.36-20.64L-3.12-20.64L-1.23-13.38Q-1.11-12.99-0.88-12.09Q-0.66-11.19-0.41-10.14Q-0.15-9.09 0.06-8.19L0.30-8.19Q0.45-8.85 0.67-9.76Q0.90-10.68 1.14-11.64Q1.38-12.60 1.56-13.38L3.45-20.64L12.36-20.64L12.36 0L6.03 0L6.03-7.44Q6.03-8.64 6.04-9.91Q6.06-11.19 6.07-12.33Q6.09-13.47 6.09-14.22L5.85-14.22Q5.76-13.62 5.60-12.81Q5.43-12 5.25-11.21Q5.07-10.41 4.89-9.81L2.22 0L-2.73 0L-5.43-9.81Q-5.58-10.41-5.78-11.21Q-5.97-12-6.12-12.81Q-6.27-13.62-6.39-14.19L-6.63-14.19Q-6.60-13.44-6.57-12.30Q-6.54-11.16-6.53-9.90Q-6.51-8.64-6.51-7.44"/><path transform="translate(517.77 379.95) rotate(12.52)" d="M-4.59 0L-11.37 0L-3.84-20.64L3.87-20.64L11.40 0L4.38 0L3.51-2.91L-3.72-2.91L-4.59 0M-1.35-10.83L-2.34-7.53L2.16-7.53L1.17-10.83Q1.05-11.19 0.90-11.70Q0.75-12.21 0.60-12.78Q0.45-13.35 0.30-13.90Q0.15-14.46 0.03-14.88L-0.21-14.88Q-0.33-14.34-0.53-13.65Q-0.72-12.96-0.93-12.22Q-1.14-11.49-1.35-10.83"/><path transform="translate(544.54 391.15) rotate(32.9)" d="M-4.24 0L-10.27 0L-10.27-20.64L-4.63-20.64L1.79-13.23Q2.05-12.93 2.51-12.36Q2.96-11.79 3.42-11.21Q3.88-10.62 4.13-10.26L4.28-10.32Q4.24-11.16 4.24-12L4.24-20.64L10.28-20.64L10.28 0L4.67 0L-2.56-8.25Q-3.07-8.85-3.43-9.34Q-3.79-9.84-4.12-10.29L-4.28-10.23Q-4.24-9.66-4.24-9.09"/><path transform="translate(565.72 410.97) rotate(53.27)" d="M-0.51 0L-9.45 0L-9.45-20.64L-0.51-20.64Q3.03-20.64 5.43-19.53Q7.83-18.42 9.08-16.14Q10.32-13.86 10.32-10.32Q10.32-6.81 9.08-4.51Q7.83-2.22 5.43-1.11Q3.03 0-0.51 0M-2.82-15.69L-2.82-4.95L-0.63-4.95Q0.45-4.95 1.24-5.25Q2.04-5.55 2.55-6.12Q3.06-6.69 3.30-7.53Q3.54-8.37 3.54-9.42L3.54-11.22Q3.54-12.27 3.30-13.11Q3.06-13.95 2.55-14.52Q2.04-15.09 1.24-15.39Q0.45-15.69-0.63-15.69"/>
<path transform="translate(454.41 553.03) rotate(26.11)" d="M-6.51 0L-12.36 0L-12.36-20.64L-3.12-20.64L-1.23-13.38Q-1.11-12.99-0.88-12.09Q-0.66-11.19-0.41-10.14Q-0.15-9.09 0.06-8.19L0.30-8.19Q0.45-8.85 0.67-9.76Q0.90-10.68 1.14-11.64Q1.38-12.60 1.56-13.38L3.45-20.64L12.36-20.64L12.36 0L6.03 0L6.03-7.44Q6.03-8.64 6.04-9.91Q6.06-11.19 6.07-12.33Q6.09-13.47 6.09-14.22L5.85-14.22Q5.76-13.62 5.60-12.81Q5.43-12 5.25-11.21Q5.07-10.41 4.89-9.81L2.22 0L-2.73 0L-5.43-9.81Q-5.58-10.41-5.78-11.21Q-5.97-12-6.12-12.81Q-6.27-13.62-6.39-14.19L-6.63-14.19Q-6.60-13.44-6.57-12.30Q-6.54-11.16-6.53-9.90Q-6.51-8.64-6.51-7.44"/><path transform="translate(483.28 562.24) rotate(9.29)" d="M9.54 0L-8.52 0L-8.52-20.64L9.33-20.64L9.33-15.69L-1.89-15.69L-1.89-12.84L7.71-12.84L7.71-8.10L-1.89-8.10L-1.89-4.95L9.54-4.95"/><path transform="translate(510.69 563.05) rotate(-5.92)" d="M-0.51 0L-9.45 0L-9.45-20.64L-0.51-20.64Q3.03-20.64 5.43-19.53Q7.83-18.42 9.08-16.14Q10.32-13.86 10.32-10.32Q10.32-6.81 9.08-4.51Q7.83-2.22 5.43-1.11Q3.03 0-0.51 0M-2.82-15.69L-2.82-4.95L-0.63-4.95Q0.45-4.95 1.24-5.25Q2.04-5.55 2.55-6.12Q3.06-6.69 3.30-7.53Q3.54-8.37 3.54-9.42L3.54-11.22Q3.54-12.27 3.30-13.11Q3.06-13.95 2.55-14.52Q2.04-15.09 1.24-15.39Q0.45-15.69-0.63-15.69"/><path transform="translate(532.36 558.42) rotate(-18.2)" d="M3.31 0L-3.32 0L-3.32-20.64L3.31-20.64"/><path transform="translate(552.55 549.28) rotate(-30.48)" d="M-4.59 0L-11.37 0L-3.84-20.64L3.87-20.64L11.40 0L4.38 0L3.51-2.91L-3.72-2.91L-4.59 0M-1.35-10.83L-2.34-7.53L2.16-7.53L1.17-10.83Q1.05-11.19 0.90-11.70Q0.75-12.21 0.60-12.78Q0.45-13.35 0.30-13.90Q0.15-14.46 0.03-14.88L-0.21-14.88Q-0.33-14.34-0.53-13.65Q-0.72-12.96-0.93-12.22Q-1.14-11.49-1.35-10.83"/>
</g>
<circle cx="500" cy="460" r="67.6" fill="#0D0F0D"/>
<path transform="translate(463.71 476.56)" d="M13.57 0L3.40 0L3.40-31.65L23.23-31.65Q26.77-31.65 29.14-30.22Q31.51-28.80 32.71-26.50Q33.90-24.20 33.90-21.53Q33.90-18.49 32.48-16.12Q31.05-13.75 28.61-12.33L34.82 0L23.41 0L18.58-10.63L13.57-10.63L13.57 0M13.57-24.43L13.57-17.66L20.70-17.66Q21.90-17.66 22.72-18.61Q23.55-19.55 23.55-21.11Q23.55-22.08 23.18-22.82Q22.82-23.55 22.17-23.99Q21.53-24.43 20.70-24.43 M59.83 0L49.67 0L49.67-12.28L37.11-31.65L48.79-31.65L54.87-21.11L55.05-21.11L61.12-31.65L72.21-31.65L59.83-12.28" fill="#E8342E"/>
</g>
<g transform="translate(533.36 257.44)"><circle cx="865.76" cy="-57.6" r="84" fill="#E8342E"/>
<path d="M59.52 0L11.84 0L11.84-110.08L59.52-110.08Q78.40-110.08 91.20-104.16Q104-98.24 110.64-86.08Q117.28-73.92 117.28-55.04Q117.28-36.32 110.64-24.08Q104-11.84 91.20-5.92Q78.40 0 59.52 0M47.20-83.68L47.20-26.40L58.88-26.40Q64.64-26.40 68.88-28Q73.12-29.60 75.84-32.64Q78.56-35.68 79.84-40.16Q81.12-44.64 81.12-50.24L81.12-59.84Q81.12-65.44 79.84-69.92Q78.56-74.40 75.84-77.44Q73.12-80.48 68.88-82.08Q64.64-83.68 58.88-83.68 M229.92 0L133.60 0L133.60-110.08L228.80-110.08L228.80-83.68L168.96-83.68L168.96-68.48L220.16-68.48L220.16-43.20L168.96-43.20L168.96-26.40L229.92-26.40 M276.64 0L245.44 0L245.44-110.08L294.72-110.08L304.80-71.36Q305.44-69.28 306.64-64.48Q307.84-59.68 309.20-54.08Q310.56-48.48 311.68-43.68L312.96-43.68Q313.76-47.20 314.96-52.08Q316.16-56.96 317.44-62.08Q318.72-67.20 319.68-71.36L329.76-110.08L377.28-110.08L377.28 0L343.52 0L343.52-39.68Q343.52-46.08 343.60-52.88Q343.68-59.68 343.76-65.76Q343.84-71.84 343.84-75.84L342.56-75.84Q342.08-72.64 341.20-68.32Q340.32-64 339.36-59.76Q338.40-55.52 337.44-52.32L323.20 0L296.80 0L282.40-52.32Q281.60-55.52 280.56-59.76Q279.52-64 278.72-68.32Q277.92-72.64 277.28-75.68L276-75.68Q276.16-71.68 276.32-65.60Q276.48-59.52 276.56-52.80Q276.64-46.08 276.64-39.68 M423.68 0L387.52 0L427.68-110.08L468.80-110.08L508.96 0L471.52 0L466.88-15.52L428.32-15.52L423.68 0M440.96-57.76L435.68-40.16L459.68-40.16L454.40-57.76Q453.76-59.68 452.96-62.40Q452.16-65.12 451.36-68.16Q450.56-71.20 449.76-74.16Q448.96-77.12 448.32-79.36L447.04-79.36Q446.40-76.48 445.36-72.80Q444.32-69.12 443.20-65.20Q442.08-61.28 440.96-57.76 M551.20 0L519.04 0L519.04-110.08L549.12-110.08L583.36-70.56Q584.80-68.96 587.20-65.92Q589.60-62.88 592.08-59.76Q594.56-56.64 595.84-54.72L596.64-55.04Q596.48-59.52 596.48-64L596.48-110.08L628.64-110.08L628.64 0L598.72 0L560.16-44Q557.44-47.20 555.52-49.84Q553.60-52.48 551.84-54.88L551.04-54.56Q551.20-51.52 551.20-48.48 M696.80 0L649.12 0L649.12-110.08L696.80-110.08Q715.68-110.08 728.48-104.16Q741.28-98.24 747.92-86.08Q754.56-73.92 754.56-55.04Q754.56-36.32 747.92-24.08Q741.28-11.84 728.48-5.92Q715.68 0 696.80 0M684.48-83.68L684.48-26.40L696.16-26.40Q701.92-26.40 706.16-28Q710.40-29.60 713.12-32.64Q715.84-35.68 717.12-40.16Q718.40-44.64 718.40-50.24L718.40-59.84Q718.40-65.44 717.12-69.92Q715.84-74.40 713.12-77.44Q710.40-80.48 706.16-82.08Q701.92-83.68 696.16-83.68" fill="#F3F0E8"/>
<path transform="translate(795.24 -25.2)" d="M26.55 0L6.66 0L6.66-61.92L45.45-61.92Q52.38-61.92 57.02-59.13Q61.65-56.34 63.99-51.84Q66.33-47.34 66.33-42.12Q66.33-36.18 63.54-31.54Q60.75-26.91 55.98-24.12L68.13 0L45.81 0L36.36-20.79L26.55-20.79L26.55 0M26.55-47.79L26.55-34.56L40.50-34.56Q42.84-34.56 44.46-36.41Q46.08-38.25 46.08-41.31Q46.08-43.20 45.36-44.64Q44.64-46.08 43.38-46.93Q42.12-47.79 40.50-47.79 M116.11 0L96.22 0L96.22-24.03L71.65-61.92L94.51-61.92L106.39-41.31L106.75-41.31L118.63-61.92L140.32-61.92L116.11-24.03" fill="#0D0F0D"/>
<path d="M17.22 90.08L4.74 90.08L4.74 46.05L24.45 46.05L28.48 61.54Q28.74 62.37 29.22 64.29Q29.70 66.21 30.24 68.45Q30.78 70.69 31.23 72.61L31.74 72.61Q32.06 71.20 32.54 69.25Q33.02 67.30 33.54 65.25Q34.05 63.20 34.43 61.54L38.46 46.05L57.47 46.05L57.47 90.08L43.97 90.08L43.97 74.21Q43.97 71.65 44 68.93Q44.03 66.21 44.06 63.78Q44.10 61.34 44.10 59.74L43.58 59.74Q43.39 61.02 43.04 62.75Q42.69 64.48 42.30 66.18Q41.92 67.87 41.54 69.15L35.84 90.08L25.28 90.08L19.52 69.15Q19.20 67.87 18.78 66.18Q18.37 64.48 18.05 62.75Q17.73 61.02 17.47 59.81L16.96 59.81Q17.02 61.41 17.09 63.84Q17.15 66.27 17.18 68.96Q17.22 71.65 17.22 74.21 M285.20 90.08L246.67 90.08L246.67 46.05L284.75 46.05L284.75 56.61L260.82 56.61L260.82 62.69L281.30 62.69L281.30 72.80L260.82 72.80L260.82 79.52L285.20 79.52 M491.30 90.08L472.22 90.08L472.22 46.05L491.30 46.05Q498.85 46.05 503.97 48.42Q509.09 50.78 511.74 55.65Q514.40 60.51 514.40 68.06Q514.40 75.55 511.74 80.45Q509.09 85.34 503.97 87.71Q498.85 90.08 491.30 90.08M486.37 56.61L486.37 79.52L491.04 79.52Q493.34 79.52 495.04 78.88Q496.74 78.24 497.82 77.02Q498.91 75.81 499.42 74.02Q499.94 72.22 499.94 69.98L499.94 66.14Q499.94 63.90 499.42 62.11Q498.91 60.32 497.82 59.10Q496.74 57.89 495.04 57.25Q493.34 56.61 491.04 56.61 M715.70 90.08L701.55 90.08L701.55 46.05L715.70 46.05 M915.07 90.08L900.61 90.08L916.67 46.05L933.12 46.05L949.18 90.08L934.21 90.08L932.35 83.87L916.93 83.87L915.07 90.08M921.98 66.98L919.87 74.02L929.47 74.02L927.36 66.98Q927.10 66.21 926.78 65.12Q926.46 64.03 926.14 62.82Q925.82 61.60 925.50 60.42Q925.18 59.23 924.93 58.34L924.42 58.34Q924.16 59.49 923.74 60.96Q923.33 62.43 922.88 64Q922.43 65.57 921.98 66.98" fill="#F3F0E8"/></g>
</svg>