<svg xmlns="http://www.w3.org/2000/svg" viewBox="-90 -90 1180 1180" aria-hidden="true" focusable="false">
  <!-- Reference copy — the live version is inlined directly in index.html (not loaded via
       <img src>) so the "RY" text can use the page's Archivo webfont; an externally-
       referenced SVG image can't see fonts loaded by the parent document. Keep both in sync.
       Whole key silhouette derived from Brand/scripts/generate-masters.mjs keyPathD, overlaid
       on hero-badge.png (same 1180 canvas, pixel-aligned) with an animated glow. A hole is
       punched in the bow over the "RY" roundel, covered with a flat onyx patch matching the
       base artwork's black center, then the RY letters are redrawn on top in Key Red so they
       glow in sync with the rest of the key. -->
  <path fill-rule="nonzero" fill="#E8342E" d="M 382 460 A 118 118 0 1 1 618 460 A 118 118 0 1 1 382 460 Z M 458 430 A 42 42 0 1 0 542 430 A 42 42 0 1 0 458 430 Z M 431 460 A 69 69 0 1 0 569 460 A 69 69 0 1 0 431 460 Z M 464 540 h 72 v 50 h -72 Z M 464 585 h 16.5 v 117 h -16.5 Z M 491.75 585 h 16.5 v 117 h -16.5 Z M 519.5 585 h 16.5 v 117 h -16.5 Z M 464 696 h 72 v 244 h -72 Z M 536 702 h 64 v 64 h -64 Z M 548 714 v 40 h 40 v -40 Z M 569 766 L 620 856 L 518 856 Z M 569 798 L 552 836 L 586 836 Z"/>
  <circle cx="500" cy="460" r="70" fill="#0D0F0D"/>
  <text x="500" y="477" text-anchor="middle" font-family="Archivo, sans-serif" font-weight="900" font-size="46" fill="#E8342E">RY</text>
</svg>
