<svg viewBox="0 0 455.257 455.257" aria-hidden="true" focusable="false">
<path transform="matrix(1,0,0,-1,0,455.257)" d="M227.69 306.8682C257.3724 306.8682 281.4346 282.8057 281.4346 253.1233 281.4346 229.1924 265.7919 208.9181 244.1752 201.9582V144.9507H273.6354V115.4908H259.3655L270.9215 95.2701 282.4772 75.05H259.3655 244.1752V36.5399H212.0887V201.6816C190.0153 208.3674 173.9451 228.8672 173.9451 253.1233 173.9451 282.8057 198.0076 306.8682 227.69 306.8682ZM227.69 283.2046C244.3033 283.2046 257.771 269.7366 257.771 253.1233 257.771 236.51 244.3033 223.042 227.69 223.042 211.0767 223.042 197.6088 236.51 197.6088 253.1233 197.6088 269.7366 211.0767 283.2046 227.69 283.2046ZM231.7668 195.2566H237.0412V146.9964H231.7668ZM219.2921 195.2566H224.5665V146.9964H219.2921ZM259.3655 115.4908H244.1752V88.9109L247.8095 95.2701ZM259.3655 97.3986 263.0446 90.9609 266.7237 84.5231H259.3655 252.0073L255.6864 90.9609ZM267.7849 139.1005H250.0256V121.3409H267.7849Z" fill="#f1453d" fill-rule="evenodd"/>
<path transform="matrix(1,0,0,-1,1,454.257)" d="M225.4289 283.5924C242.8087 283.5924 256.898 269.5031 256.898 252.1233 256.898 234.7435 242.8087 220.6542 225.4289 220.6542 208.0491 220.6542 193.9598 234.7435 193.9598 252.1233 193.9598 269.5031 208.0491 283.5924 225.4289 283.5924Z" fill="#3a3a39" fill-rule="evenodd"/>
<path transform="matrix(1,0,0,-1,1,454.257)" stroke-width=".5669" stroke-linecap="butt" stroke-miterlimit="22.92559" stroke-linejoin="miter" fill="none" stroke="#1a1a18" d="M225.4289 283.5924C242.8087 283.5924 256.898 269.5031 256.898 252.1233 256.898 234.7435 242.8087 220.6542 225.4289 220.6542 208.0491 220.6542 193.9598 234.7435 193.9598 252.1233 193.9598 269.5031 208.0491 283.5924 225.4289 283.5924Z"/>
<path transform="matrix(1,0,0,-1,0,455.257)" d="M212.602 245.6821V260.5643H219.5753C221.3268 260.5643 222.6018 260.4293 223.3955 260.1626 224.1932 259.8958 224.827 259.421 225.3038 258.7387 225.7812 258.0528 226.0215 257.2732 226.0215 256.3934 226.0215 255.2745 225.6627 254.353 224.9413 253.6256 224.2201 252.898 223.1435 252.4407 221.7086 252.2502 222.4221 251.8727 223.01 251.4568 223.4718 251.003 223.9375 250.5494 224.5634 249.7421 225.3497 248.585L227.3499 245.6821H223.3918L221.0178 248.9314C220.1666 250.0851 219.5826 250.8125 219.266 251.1141 218.9531 251.412 218.6209 251.6198 218.2696 251.7306 217.9147 251.8415 217.3574 251.8968 216.5941 251.8968H215.9226V245.6821ZM215.9226 254.2665H218.3728C219.9605 254.2665 220.9489 254.3289 221.3461 254.4499 221.7392 254.5712 222.0522 254.7827 222.2736 255.0806 222.4986 255.3786 222.6092 255.7524 222.6092 256.1995 222.6092 256.7018 222.4607 257.1037 222.1667 257.4155 221.8728 257.7237 221.4569 257.9178 220.9226 257.9975 220.6513 258.0321 219.846 258.0494 218.5063 258.0494H215.9226ZM234.4886 245.6821V251.9455L228.4775 260.5643H232.3592L236.2368 254.6716 240.0117 260.5643H243.8206L237.8091 251.9245V245.6821Z" fill="#e8352e"/>
<path transform="matrix(1,0,0,-1,0,455.257)" d="M192.736 280.5445 194.9949 282.9341C195.5046 283.4733 195.9338 283.8455 196.2838 284.0496 196.7541 284.3231 197.2618 284.4609 197.8043 284.4597 198.3469 284.4617 198.8914 284.3359 199.4411 284.0856 199.9879 283.8347 200.5667 283.4214 201.1742 282.8474 201.7088 282.342 202.1054 281.8417 202.3661 281.3431 202.6862 280.7347 202.8497 280.1423 202.8574 279.566 202.8653 279.1295 202.7474 278.6601 202.5073 278.1578 202.3267 277.7822 202.0078 277.3541 201.5509 276.8711L199.2251 274.4104ZM195.0746 280.822 199.3705 276.7611 200.2915 277.7354C200.6356 278.0994 200.8629 278.3823 200.9749 278.5824 201.1234 278.8452 201.1983 279.1062 201.2028 279.365 201.2088 279.6255 201.1073 279.9359 200.9003 280.2976 200.6946 280.6608 200.3385 281.0803 199.8374 281.5542 199.3356 282.0285 198.9107 282.3471 198.5578 282.5123 198.2057 282.6787 197.8803 282.7522 197.5793 282.7363 197.2797 282.719 196.9874 282.6152 196.7031 282.4205 196.4908 282.2776 196.1313 281.9397 195.6288 281.408ZM208.5553 282.6467 204.5553 290.6299 210.4647 293.591 211.1408 292.242 206.8477 290.0911 207.7361 288.318 211.7278 290.3181 212.4039 288.9691 208.4122 286.969 209.4958 284.8059 213.9448 287.035 214.6209 285.6857ZM219.4684 287.0838 218.7906 295.9874 221.4912 296.1929 223.5492 290.2419 224.664 296.4344 227.3711 296.6405 228.0486 287.7369 226.3821 287.6099 225.8424 294.6188 224.6207 287.4761 222.8881 287.344 220.6074 294.2206 221.1346 287.2105ZM240.6174 284.9178 238.7378 285.4283 238.5263 287.592 235.0703 288.5309 233.8214 286.7637 231.976 287.2649 237.6623 294.9734 239.5057 294.4726ZM238.3562 289.2021 238.0251 292.7168 235.9955 289.8433ZM244.0703 282.7989 249.2906 290.0437 250.7105 289.0204 250.1934 282.0171 253.6919 286.872 255.0475 285.8952 249.8275 278.6507 248.362 279.7066 248.8574 286.5843 245.4261 281.8221ZM260.9132 279.5215 262.7203 276.7745C263.1282 276.1545 263.3918 275.6514 263.51 275.2639 263.6682 274.7434 263.6855 274.2173 263.5602 273.6898 263.4374 273.1611 263.19 272.66 262.8201 272.1826 262.4501 271.7081 261.9152 271.2395 261.2171 270.7803 260.6022 270.3758 260.0243 270.1048 259.4791 269.9654 258.8136 269.7936 258.1993 269.7703 257.6366 269.8953 257.21 269.988 256.7803 270.2106 256.3466 270.5595 256.0226 270.8214 255.6793 271.2302 255.3136 271.7858L253.453 274.6145ZM260.6465 277.1818 255.7077 273.9333 256.4444 272.813C256.7196 272.3946 256.9424 272.1083 257.1117 271.9536 257.3336 271.7486 257.5703 271.6157 257.8212 271.5519 258.0732 271.4864 258.3986 271.5136 258.7983 271.6321 259.1988 271.7492 259.6889 271.9992 260.2655 272.3782 260.842 272.7575 261.25 273.0982 261.4915 273.4038 261.7347 273.7079 261.8807 274.0078 261.9342 274.3046 261.9861 274.6 261.9524 274.9084 261.8282 275.2299 261.7378 275.4691 261.4915 275.8969 261.0895 276.508Z" fill="#1a1a18"/>
<path transform="matrix(1,0,0,-1,0,455.257)" d="M201.5631 214.9494 205.5543 222.9374 207.977 221.7268 206.6864 215.5634 210.8236 220.3046 213.252 219.0911 209.2609 211.1034 207.7659 211.8503 210.9021 218.1415 206.1855 212.64 204.631 213.4164 206.2057 220.4883 203.0581 214.2025Z" fill="#1a1a18"/>
<path transform="matrix(1,0,0,-1,0,455.257)" d="M215.7462 209.0854 216.8149 217.9507 223.3771 217.1596 223.1965 215.6615 218.4295 216.2363 218.192 214.2674 222.6248 213.7331 222.4442 212.235 218.0114 212.7693 217.722 210.3672 222.6625 209.7717 222.4819 208.2735Z" fill="#1a1a18"/>
<path transform="matrix(1,0,0,-1,0,455.257)" d="M227.2277 216.8594 230.5108 217.0414C231.2517 217.0825 231.8192 217.0578 232.2135 216.9651 232.7433 216.8404 233.2068 216.5912 233.6 216.2176 233.9954 215.846 234.3041 215.3803 234.5311 214.8204 234.7557 214.2623 234.892 213.5644 234.9382 212.7299 234.979 211.9951 234.9229 211.3593 234.7695 210.8179 234.5836 210.156 234.295 209.6135 233.9044 209.1897 233.6099 208.8674 233.2017 208.6077 232.6818 208.4079 232.2926 208.2594 231.7668 208.1678 231.1029 208.131L227.722 207.9436ZM229.1167 215.4529 229.4438 209.5506 230.7826 209.6248C231.2826 209.6526 231.6424 209.7014 231.8612 209.7697 232.1498 209.8587 232.3836 209.9967 232.5648 210.1815 232.7482 210.3666 232.8879 210.6617 232.9866 211.0665 233.0866 211.4719 233.1167 212.0212 233.0784 212.71 233.0401 213.3991 232.9506 213.923 232.808 214.2855 232.6668 214.6484 232.4809 214.9253 232.2515 215.1209 232.0222 215.3142 231.7385 215.4398 231.398 215.494 231.146 215.5362 230.6525 215.5382 229.922 215.4976Z" fill="#1a1a18"/>
<path transform="matrix(1,0,0,-1,0,455.257)" d="M240.7155 210.3349 237.7128 218.7442 239.4158 219.3525 242.4186 210.9429Z" fill="#1a1a18"/>
<path transform="matrix(1,0,0,-1,0,455.257)" d="M254.8595 216.9719 253.199 215.9543 251.4795 217.2843 248.426 215.4129 248.8555 213.292 247.2253 212.2928 245.5151 221.7177 247.1436 222.7161ZM250.1911 218.2648 247.4061 220.4342 248.1054 216.9864Z" fill="#1a1a18"/>

</svg>